<svg width="336" height="137" viewBox="0 0 336 137" fill="none" xmlns="http://www.w3.org/2000/svg">
<path d="M16.8079 5.10399C23.3839 5.10399 28.4959 6.47199 32.1439 9.20799C35.7919 11.944 37.6159 16 37.6159 21.376C37.6159 26.992 35.8159 31.24 32.2159 34.12C28.6639 36.952 23.8879 38.368 17.8879 38.368H12.4879V55H0.679932V5.10399H16.8079ZM16.8799 29.872C19.6639 29.872 21.7759 29.224 23.2159 27.928C24.7039 26.584 25.4479 24.4 25.4479 21.376C25.4479 16.144 22.5199 13.528 16.6639 13.528H12.4879V29.872H16.8799Z" fill="black"/>
<path d="M70.2932 43.912C70.2932 45.352 70.4852 46.408 70.8692 47.08C71.3012 47.752 71.9732 48.256 72.8852 48.592L70.5092 56.008C68.1572 55.816 66.2372 55.312 64.7492 54.496C63.2612 53.632 62.1092 52.288 61.2932 50.464C58.7972 54.304 54.9572 56.224 49.7732 56.224C45.9812 56.224 42.9572 55.12 40.7012 52.912C38.4452 50.704 37.3172 47.824 37.3172 44.272C37.3172 40.096 38.8532 36.904 41.9252 34.696C44.9972 32.488 49.4372 31.384 55.2452 31.384H59.1332V29.728C59.1332 27.472 58.6532 25.936 57.6932 25.12C56.7332 24.256 55.0532 23.824 52.6532 23.824C51.4052 23.824 49.8932 24.016 48.1172 24.4C46.3412 24.736 44.5172 25.216 42.6452 25.84L40.0532 18.352C42.4532 17.44 44.9012 16.744 47.3972 16.264C49.9412 15.784 52.2932 15.544 54.4532 15.544C59.9252 15.544 63.9332 16.672 66.4772 18.928C69.0212 21.184 70.2932 24.568 70.2932 29.08V43.912ZM53.0852 48.088C55.6772 48.088 57.6932 46.864 59.1332 44.416V37.648H56.3252C53.7332 37.648 51.7892 38.104 50.4932 39.016C49.2452 39.928 48.6212 41.344 48.6212 43.264C48.6212 44.8 49.0052 46 49.7732 46.864C50.5892 47.68 51.6932 48.088 53.0852 48.088Z" fill="black"/>
<path d="M111.611 55H101.747L101.243 50.176C98.4586 54.208 94.5946 56.224 89.6506 56.224C86.1466 56.224 83.4826 55.168 81.6586 53.056C79.8826 50.944 78.9946 47.992 78.9946 44.2V16.768H90.3706V42.76C90.3706 44.632 90.6586 45.952 91.2346 46.72C91.8586 47.44 92.7946 47.8 94.0426 47.8C96.4426 47.8 98.5066 46.312 100.235 43.336V16.768H111.611V55Z" fill="black"/>
<path d="M130.71 56.224C127.398 56.224 124.806 55.288 122.934 53.416C121.11 51.496 120.198 48.784 120.198 45.28V1.57599L131.574 0.35199V44.848C131.574 46.432 132.222 47.224 133.518 47.224C134.19 47.224 134.814 47.104 135.39 46.864L137.622 54.928C135.558 55.792 133.254 56.224 130.71 56.224Z" fill="black"/>
<path d="M158.141 15.544C163.997 15.544 168.581 17.344 171.893 20.944C175.205 24.496 176.861 29.488 176.861 35.92C176.861 40 176.093 43.576 174.557 46.648C173.069 49.672 170.909 52.024 168.077 53.704C165.293 55.384 161.981 56.224 158.141 56.224C152.333 56.224 147.749 54.448 144.389 50.896C141.077 47.296 139.421 42.28 139.421 35.848C139.421 31.768 140.165 28.216 141.653 25.192C143.189 22.12 145.349 19.744 148.133 18.064C150.965 16.384 154.301 15.544 158.141 15.544ZM158.141 23.896C155.837 23.896 154.109 24.88 152.957 26.848C151.805 28.768 151.229 31.768 151.229 35.848C151.229 40.024 151.781 43.072 152.885 44.992C154.037 46.912 155.789 47.872 158.141 47.872C160.445 47.872 162.173 46.912 163.325 44.992C164.477 43.024 165.053 40 165.053 35.92C165.053 31.744 164.477 28.696 163.325 26.776C162.221 24.856 160.493 23.896 158.141 23.896Z" fill="black"/>
<path d="M122.096 115.92H117.488V135H105.68V85.104H122.024C128.84 85.104 133.952 86.352 137.36 88.848C140.816 91.344 142.544 95.16 142.544 100.296C142.544 103.512 141.776 106.2 140.24 108.36C138.704 110.472 136.28 112.272 132.968 113.76L145.64 135H132.32L122.096 115.92ZM117.488 107.784H122.456C125.096 107.784 127.064 107.184 128.36 105.984C129.704 104.784 130.376 102.888 130.376 100.296C130.376 97.896 129.656 96.144 128.216 95.04C126.824 93.936 124.664 93.384 121.736 93.384H117.488V107.784Z" fill="black"/>
<path d="M161.277 96.768V135H149.901V96.768H161.277ZM155.517 76.608C157.485 76.608 159.093 77.232 160.341 78.48C161.637 79.68 162.285 81.216 162.285 83.088C162.285 84.96 161.637 86.52 160.341 87.768C159.093 88.968 157.485 89.568 155.517 89.568C153.549 89.568 151.941 88.968 150.693 87.768C149.445 86.52 148.821 84.96 148.821 83.088C148.821 81.216 149.445 79.68 150.693 78.48C151.941 77.232 153.549 76.608 155.517 76.608Z" fill="black"/>
<path d="M191.894 95.544C196.454 95.544 199.958 97.344 202.406 100.944C204.854 104.496 206.078 109.488 206.078 115.92C206.078 119.856 205.454 123.36 204.206 126.432C203.006 129.504 201.254 131.904 198.95 133.632C196.694 135.36 194.006 136.224 190.886 136.224C188.822 136.224 186.926 135.792 185.198 134.928C183.518 134.064 182.078 132.864 180.878 131.328L180.302 135H170.222V81.576L181.598 80.352V100.656C182.75 99.072 184.214 97.824 185.99 96.912C187.814 96 189.782 95.544 191.894 95.544ZM187.574 127.944C192.038 127.944 194.27 123.936 194.27 115.92C194.27 111.36 193.742 108.216 192.686 106.488C191.63 104.76 190.094 103.896 188.078 103.896C185.534 103.896 183.374 105.384 181.598 108.36V124.272C182.318 125.424 183.182 126.336 184.19 127.008C185.246 127.632 186.374 127.944 187.574 127.944Z" fill="black"/>
<path d="M246.519 115.128C246.519 116.712 246.447 118.08 246.303 119.232H222.615C222.999 122.448 223.911 124.704 225.351 126C226.791 127.296 228.783 127.944 231.327 127.944C232.863 127.944 234.351 127.68 235.791 127.152C237.231 126.576 238.791 125.712 240.471 124.56L245.151 130.896C240.687 134.448 235.719 136.224 230.247 136.224C224.055 136.224 219.303 134.4 215.991 130.752C212.679 127.104 211.023 122.208 211.023 116.064C211.023 112.176 211.719 108.696 213.111 105.624C214.503 102.504 216.543 100.056 219.231 98.28C221.919 96.456 225.135 95.544 228.879 95.544C234.399 95.544 238.719 97.272 241.839 100.728C244.959 104.184 246.519 108.984 246.519 115.128ZM235.359 111.888C235.263 106.032 233.199 103.104 229.167 103.104C227.199 103.104 225.663 103.824 224.559 105.264C223.503 106.704 222.855 109.08 222.615 112.392H235.359V111.888Z" fill="black"/>
<path d="M264.285 96.768V135H252.909V96.768H264.285ZM258.525 76.608C260.493 76.608 262.101 77.232 263.349 78.48C264.645 79.68 265.293 81.216 265.293 83.088C265.293 84.96 264.645 86.52 263.349 87.768C262.101 88.968 260.493 89.568 258.525 89.568C256.557 89.568 254.949 88.968 253.701 87.768C252.453 86.52 251.829 84.96 251.829 83.088C251.829 81.216 252.453 79.68 253.701 78.48C254.949 77.232 256.557 76.608 258.525 76.608Z" fill="black"/>
<path d="M293.966 95.688C295.358 95.688 296.63 95.856 297.782 96.192L295.982 107.208C294.542 106.872 293.39 106.704 292.526 106.704C290.27 106.704 288.542 107.496 287.342 109.08C286.19 110.616 285.278 112.944 284.606 116.064V135H273.23V96.768H283.166L284.102 104.184C284.966 101.544 286.262 99.48 287.99 97.992C289.766 96.456 291.758 95.688 293.966 95.688Z" fill="black"/>
<path d="M316.508 95.544C322.364 95.544 326.948 97.344 330.26 100.944C333.572 104.496 335.228 109.488 335.228 115.92C335.228 120 334.46 123.576 332.924 126.648C331.436 129.672 329.276 132.024 326.444 133.704C323.66 135.384 320.348 136.224 316.508 136.224C310.7 136.224 306.116 134.448 302.756 130.896C299.444 127.296 297.788 122.28 297.788 115.848C297.788 111.768 298.532 108.216 300.02 105.192C301.556 102.12 303.716 99.744 306.5 98.064C309.332 96.384 312.668 95.544 316.508 95.544ZM316.508 103.896C314.204 103.896 312.476 104.88 311.324 106.848C310.172 108.768 309.596 111.768 309.596 115.848C309.596 120.024 310.148 123.072 311.252 124.992C312.404 126.912 314.156 127.872 316.508 127.872C318.812 127.872 320.54 126.912 321.692 124.992C322.844 123.024 323.42 120 323.42 115.92C323.42 111.744 322.844 108.696 321.692 106.776C320.588 104.856 318.86 103.896 316.508 103.896Z" fill="black"/>
</svg>
